<svg xmlns="http://www.w3.org/2000/svg" viewBox="0 0 110 98" width="110" height="98">
    <defs>
        <linearGradient id="g1" x1="0" x2="1" y1="0" y2="1">
            <stop offset="0" stop-color="#3e86c1"/>
            <stop offset="1" stop-color="#00b4ff"/>
        </linearGradient>
        <filter id="f1" x="-50%" y="-50%" width="200%" height="200%">
            <feDropShadow dx="0" dy="6" stdDeviation="10" flood-color="#0b3550" flood-opacity="0.12"/>
        </filter>
        <filter id="tabShadow" x="-50%" y="-50%" width="200%" height="200%">
            <feDropShadow dx="0" dy="2" stdDeviation="4" flood-color="#072B45" flood-opacity="0.08"/>
        </filter>
    </defs>

    <!-- Asosiy ikon: gradient fon + oq T -->
    <rect x="0" y="10" width="88" height="88" rx="18" ry="18" fill="url(#g1)" filter="url(#f1)"/>
    <g transform="translate(6,16) scale(2)">
        <path fill="#FFFFFF" d="M28.88 17.46L18.53 17.46L13.53 46.39L5.15 46.39L10.18 17.46L0 17.46L1.17 10.84L30.03 10.84L28.88 17.46Z"/>
    </g>

    <!-- Tepada kichik T tab -->
    <g transform="translate(68,0)">
        <rect x="0" y="0" width="34" height="34" rx="8" ry="8" fill="#ffffff" stroke="rgba(7,43,69,0.06)" stroke-width="1" filter="url(#tabShadow)"/>
        <rect x="4" y="4" width="26" height="26" rx="6" ry="6" fill="url(#g1)" opacity="0.06"/>
        <g transform="translate(2.5,1.5) scale(0.42)">
            <path fill="#3e86c1" d="M28.88 17.46L18.53 17.46L13.53 46.39L5.15 46.39L10.18 17.46L0 17.46L1.17 10.84L30.03 10.84L28.88 17.46Z"/>
        </g>
    </g>
</svg>
